<svg width="77" height="30" viewBox="0 0 77 30" fill="none" xmlns="http://www.w3.org/2000/svg">
<path d="M50.9761 30H50.5423C46.8655 30 43.7202 26.2862 42.9155 22.8457C42.279 20.1265 39.8571 17.2154 37.2664 17.2154H32.0849V15.2121C35.6099 15.2121 38.9677 13.7145 41.2961 11.1037L41.5065 10.8676C42.3762 9.89236 42.8548 8.64005 42.8548 7.34137C42.8548 4.39792 40.4286 2.00327 37.4456 2.00327H24.1309V0H37.4456C41.5475 0 44.885 3.29332 44.885 7.34137C44.885 9.12739 44.2267 10.8498 43.0308 12.1911L42.8204 12.4272C41.7114 13.6703 40.4029 14.6968 38.9622 15.4763C41.8758 16.3847 44.213 19.4866 44.8932 22.395C45.5264 25.1002 47.9472 27.9967 50.5423 27.9967H50.9761V30Z" fill="black"/>
<path d="M16.1946 16.877L14.6703 15.5535L18.8481 10.8693C19.7179 9.89408 20.197 8.64176 20.197 7.34255C20.197 4.3991 17.7702 2.00445 14.7872 2.00445H0.5V0.00117683H14.7872C18.8896 0.00117683 22.2272 3.2945 22.2272 7.34255C22.2272 9.1291 21.5683 10.8515 20.3724 12.1922L16.1946 16.877Z" fill="black"/>
<path d="M3.47234 27.9568C3.50894 27.9568 3.54664 27.9574 3.58543 27.9574C6.16413 27.973 13.0152 28.0134 16.7739 27.9892C19.0587 27.9741 21.1173 26.3935 21.668 24.2306C22.0663 22.6662 21.7478 21.0602 20.7944 19.8246C19.8422 18.5917 18.3621 17.8634 16.733 17.8267C16.3199 17.8176 15.8982 17.8284 15.4518 17.8397C15.2333 17.8451 15.0109 17.8505 14.7831 17.8542L13.7483 17.8699L13.7522 16.8488C13.7527 16.6046 13.7554 16.3685 13.7582 16.1394C13.7636 15.6725 13.7686 15.2315 13.7565 14.8013C13.7014 12.7776 12.8294 11.3226 11.0915 10.3544C9.50715 9.47187 7.61192 9.48912 6.02208 10.3996C4.42187 11.3166 3.46087 12.9458 3.45212 14.7577C3.4341 18.5685 3.46196 25.3821 3.47234 27.9568ZM13.8855 30C10.1693 30 5.5801 29.9725 3.57286 29.9606C2.95715 29.9569 2.55778 29.9547 2.46107 29.9547H1.44598V28.9531C1.44598 28.8711 1.44435 28.5202 1.44216 27.973C1.43178 25.4015 1.40392 18.5718 1.42195 14.7485C1.43451 12.2185 2.77248 9.94519 5.00262 8.66754C7.22183 7.39582 9.87156 7.37426 12.0897 8.60986C14.4335 9.91608 15.7119 12.038 15.7862 14.7474C15.796 15.1075 15.7955 15.4623 15.7916 15.8278C16.1227 15.8208 16.4467 15.817 16.7789 15.824C19.0292 15.8747 21.0813 16.8903 22.4094 18.6111C23.7392 20.3341 24.1866 22.56 23.637 24.7185C22.8514 27.8027 20.035 29.9709 16.7876 29.9919C15.9468 29.9978 14.9519 30 13.8855 30Z" fill="black"/>
<path d="M68.8283 16.877L67.3041 15.5535L71.4819 10.8693C72.3517 9.89408 72.8308 8.64176 72.8308 7.34255C72.8308 4.3991 70.404 2.00445 67.421 2.00445H53.1338V0.00117683H67.421C71.5234 0.00117683 74.861 3.2945 74.861 7.34255C74.861 9.1291 74.2021 10.8515 73.0062 12.1922L68.8283 16.877Z" fill="black"/>
<path d="M56.1052 27.9568C56.1418 27.9568 56.1795 27.9574 56.2182 27.9574C58.7975 27.973 65.648 28.0134 69.4068 27.9892C71.6915 27.9741 73.7501 26.3935 74.3008 24.2306C74.6991 22.6662 74.3806 21.0602 73.4272 19.8246C72.475 18.5917 70.995 17.8634 69.3658 17.8267C68.9528 17.8176 68.531 17.8284 68.0846 17.8397C67.8661 17.8451 67.6437 17.8505 67.4159 17.8542L66.3812 17.8699L66.385 16.8488C66.3855 16.6046 66.3883 16.3685 66.391 16.1394C66.3965 15.6725 66.4014 15.2315 66.3894 14.8013C66.3342 12.7776 65.4622 11.3226 63.7243 10.3544C62.14 9.47187 60.2447 9.48912 58.6549 10.3996C57.0547 11.3166 56.0937 12.9458 56.0849 14.7577C56.0669 18.5685 56.0948 25.3821 56.1052 27.9568ZM66.5183 30C62.8021 30 58.2129 29.9725 56.2057 29.9606C55.59 29.9569 55.1906 29.9547 55.0939 29.9547H54.0788V28.9531C54.0788 28.8711 54.0772 28.5202 54.075 27.973C54.0646 25.4015 54.0367 18.5718 54.0548 14.7485C54.0668 12.2185 55.4053 9.94519 57.6354 8.66754C59.8546 7.39582 62.5038 7.37426 64.7225 8.60986C67.0663 9.91608 68.3447 12.038 68.419 14.7474C68.4288 15.1075 68.4283 15.4623 68.4245 15.8278C68.7555 15.8208 69.0795 15.817 69.4117 15.824C71.662 15.8747 73.7141 16.8903 75.0422 18.6111C76.372 20.3341 76.8194 22.56 76.2698 24.7185C75.4842 27.8027 72.6678 29.9709 69.4204 29.9919C68.5796 29.9978 67.5847 30 66.5183 30Z" fill="black"/>
</svg>
