<svg xmlns="http://www.w3.org/2000/svg" width="55" height="55" viewBox="0 0 55 55">
  <g id="icon_01" transform="translate(-542 -348)">
    <circle id="Ellipse_1" data-name="Ellipse 1" cx="27.5" cy="27.5" r="27.5" transform="translate(542 348)" fill="#efbcb5"/>
    <g id="Group_1" data-name="Group 1">
      <path id="Path_1" data-name="Path 1" d="M19,34.833A15.82,15.82,0,1,0,4.818,26.05a2.58,2.58,0,0,1,.212,1.818l-.942,3.524a2.058,2.058,0,0,0,2.519,2.521l3.525-.944a2.587,2.587,0,0,1,1.819.211A15.768,15.768,0,0,0,19,34.833Z" transform="translate(550.833 356.834)" fill="none" stroke="#904130" stroke-width="2"/>
      <path id="Path_2" data-name="Path 2" d="M19,24.277a2.938,2.938,0,0,0,3.167-2.638A2.94,2.94,0,0,0,19,19a2.938,2.938,0,0,1-3.167-2.639A2.938,2.938,0,0,1,19,13.722m0,10.554a2.938,2.938,0,0,1-3.167-2.638M19,24.277v1.056m0-11.611V12.666m0,1.056a2.938,2.938,0,0,1,3.167,2.638" transform="translate(550.833 356.834)" fill="none" stroke="#904130" stroke-linecap="round" stroke-width="2"/>
    </g>
  </g>
</svg>
