<svg xmlns="http://www.w3.org/2000/svg" width="55" height="55" viewBox="0 0 55 55">
  <g id="icon_05" transform="translate(-842 -348)">
    <circle id="Ellipse_1" data-name="Ellipse 1" cx="27.5" cy="27.5" r="27.5" transform="translate(842 348)" fill="#efbcb5"/>
    <g id="Frame_427318266" data-name="Frame 427318266" transform="translate(854 356)">
      <path id="Path_9" data-name="Path 9" d="M28.786,27.912a2.955,2.955,0,0,0-1.265-.619,2.84,2.84,0,0,0-1.389.049l-5.229,1.3a4.052,4.052,0,0,0,.011-1.685,3.9,3.9,0,0,0-.672-1.522,3.56,3.56,0,0,0-1.22-1.055A3.3,3.3,0,0,0,17.5,24H11.24a3.731,3.731,0,0,0-1.531.326,3.972,3.972,0,0,0-1.3.936L5.585,28.308H2a1.93,1.93,0,0,0-1.414.631A2.241,2.241,0,0,0,0,30.462v5.385a2.241,2.241,0,0,0,.586,1.523A1.93,1.93,0,0,0,2,38H15a.926.926,0,0,0,.242-.032l8-2.154a.817.817,0,0,0,.149-.054l4.858-2.226.055-.027a3.154,3.154,0,0,0,1.162-1.09,3.474,3.474,0,0,0,.525-1.56,3.541,3.541,0,0,0-.244-1.639,3.287,3.287,0,0,0-.951-1.305ZM2,30.462H5v5.385H2Zm25.424,1.105-4.749,2.178-7.8,2.1H7V29.83l2.828-3.045a1.98,1.98,0,0,1,.648-.469,1.859,1.859,0,0,1,.766-.163H17.5a1.447,1.447,0,0,1,1.061.473,1.7,1.7,0,0,1,0,2.285,1.448,1.448,0,0,1-1.061.473H14a.965.965,0,0,0-.707.315,1.136,1.136,0,0,0,0,1.523.965.965,0,0,0,.707.316h4a.97.97,0,0,0,.224-.027l8.374-2.074.039-.011a1,1,0,0,1,.766.079,1.13,1.13,0,0,1,.521.61,1.241,1.241,0,0,1,.009.829,1.135,1.135,0,0,1-.508.622Z" fill="#904130"/>
      <path id="Path_10" data-name="Path 10" d="M22.685,1,25.36,2.951l3.311-.006L29.688,6.1l2.682,1.941-1.029,3.147,1.029,3.147-2.682,1.941-1.017,3.151-3.311-.006-2.675,1.951L20.01,19.416l-3.311.006-1.017-3.151L13,14.331l1.029-3.147L13,8.037,15.682,6.1,16.7,2.945l3.311.006Z" fill="none" stroke="#904130" stroke-linecap="round" stroke-linejoin="round" stroke-width="2"/>
      <path id="Path_11" data-name="Path 11" d="M19.121,11.185l2.546,2.546,5.092-5.092" fill="none" stroke="#904130" stroke-linecap="round" stroke-linejoin="round" stroke-width="2"/>
    </g>
  </g>
</svg>
