<svg xmlns="http://www.w3.org/2000/svg" width="55" height="55" viewBox="0 0 55 55">
  <g id="icon_04" transform="translate(-767 -348)">
    <circle id="Ellipse_1" data-name="Ellipse 1" cx="27.5" cy="27.5" r="27.5" transform="translate(767 348)" fill="#efbcb5"/>
    <g id="Group" transform="translate(777 361)">
      <path id="Path_6" data-name="Path 6" d="M9.967,6.454v9.316l15.96,4.353V2.1Zm-2.1,9.316A2.1,2.1,0,0,0,9.415,17.8l15.96,4.353a2.1,2.1,0,0,0,2.652-2.029V2.1A2.1,2.1,0,0,0,25.375.074L9.415,4.427A2.1,2.1,0,0,0,7.867,6.454Z" fill="#904130" fill-rule="evenodd"/>
      <path id="Path_7" data-name="Path 7" d="M3.785,15.731H8.077V6.491h-4.3a7.186,7.186,0,0,0,.006,9.24Zm4.292,2.1a2.1,2.1,0,0,0,2.1-2.1V6.491a2.1,2.1,0,0,0-2.1-2.1H3.359a1.155,1.155,0,0,0-.84.361,9.283,9.283,0,0,0,0,12.709,1.165,1.165,0,0,0,.85.37Z" fill="#904130" fill-rule="evenodd"/>
      <path id="Path_8" data-name="Path 8" d="M11.792,19.028,6.521,18.44,4.468,26.651H10Zm-5.04-2.673a2.1,2.1,0,0,0-2.27,1.575L2.431,26.141a2.1,2.1,0,0,0,2.037,2.61H10a2.1,2.1,0,0,0,2.045-1.621l1.789-7.623a2.1,2.1,0,0,0-1.814-2.568ZM35.621,2.97a1.05,1.05,0,0,1-.292,1.455l-3.15,2.1a1.05,1.05,0,1,1-1.163-1.747l3.15-2.1a1.05,1.05,0,0,1,1.455.292Zm-5.074,8.142a1.05,1.05,0,0,1,1.05-1.05h3.15a1.05,1.05,0,1,1,0,2.1H31.6a1.05,1.05,0,0,1-1.05-1.05Zm.246,4.683a1.05,1.05,0,0,1,1.481-.126l2.9,2.434a1.05,1.05,0,0,1-1.35,1.607l-2.9-2.436a1.05,1.05,0,0,1-.13-1.478Z" fill="#904130" fill-rule="evenodd"/>
    </g>
  </g>
</svg>
