<svg xmlns="http://www.w3.org/2000/svg" width="55" height="55" viewBox="0 0 55 55">
  <g id="icon_03" transform="translate(-692 -348)">
    <circle id="Ellipse_1" data-name="Ellipse 1" cx="27.5" cy="27.5" r="27.5" transform="translate(692 348)" fill="#efbcb5"/>
    <path id="ph_users-three-light" d="M41.869,25.575a1.031,1.031,0,0,1-1.444-.206A9.209,9.209,0,0,0,33,21.657a1.031,1.031,0,1,1,0-2.062,4.469,4.469,0,1,0-4.328-5.586,1.031,1.031,0,0,1-2-.516,6.531,6.531,0,1,1,10.3,6.811,11.29,11.29,0,0,1,5.1,3.828,1.031,1.031,0,0,1-.206,1.444ZM32.517,36.61a1.031,1.031,0,0,1-.376,1.409,1.014,1.014,0,0,1-.516.139,1.031,1.031,0,0,1-.894-.516,10.141,10.141,0,0,0-17.466,0,1.031,1.031,0,1,1-1.784-1.031A12.048,12.048,0,0,1,17.7,31.376a7.906,7.906,0,1,1,8.611,0A12.049,12.049,0,0,1,32.517,36.61ZM22,30.594a5.844,5.844,0,1,0-4.132-1.712A5.844,5.844,0,0,0,22,30.594Zm-9.969-9.969A1.031,1.031,0,0,0,11,19.594a4.469,4.469,0,1,1,4.328-5.588,1.031,1.031,0,0,0,2-.516A6.531,6.531,0,1,0,7.028,20.3a11.29,11.29,0,0,0-5.1,3.829,1.031,1.031,0,0,0,1.65,1.238A9.209,9.209,0,0,1,11,21.657a1.031,1.031,0,0,0,1.031-1.031Z" transform="translate(697.281 352.414)" fill="#904130"/>
  </g>
</svg>
